HIERARCHY
ROOT Hips
{
	OFFSET 0.000000 83.214638 0.000000
	CHANNELS 6 Xposition Yposition Zposition Xrotation Yrotation Zrotation
	JOINT Pelvis
	{
		OFFSET 0.000000 0.000000 0.000000
		CHANNELS 3 Xrotation Yrotation Zrotation
		JOINT LeftUpLeg
		{
			OFFSET 8.479700 -4.795502 -0.379100
			CHANNELS 3 Xrotation Yrotation Zrotation
			JOINT LeftLeg
			{
				OFFSET 0.024144 -32.555107 0.112900
				CHANNELS 3 Xrotation Yrotation Zrotation
				JOINT LeftFoot
				{
					OFFSET -0.024144 -32.638630 -3.012600
					CHANNELS 3 Xrotation Yrotation Zrotation
					JOINT LeftToeBase
					{
						OFFSET 0.970200 -13.225400 11.864200
						CHANNELS 3 Xrotation Yrotation Zrotation
						End Site
						{
							OFFSET 0.000000 12.319262 0.000000
						}
					}
					JOINT LFootTongue
					{
						OFFSET 1.142400 -1.059800 6.665200
						CHANNELS 3 Xrotation Yrotation Zrotation
						End Site
						{
							OFFSET 0.000000 12.319262 0.000000
						}
					}
				}
				JOINT LeftPantLeg
				{
					OFFSET 0.918482 -16.533964 -2.284700
					CHANNELS 3 Xrotation Yrotation Zrotation
					End Site
					{
						OFFSET 0.350399 24.744368 0.000000
					}
				}
			}
		}
		JOINT RightUpLeg
		{
			OFFSET -8.479700 -4.795502 -0.379100
			CHANNELS 3 Xrotation Yrotation Zrotation
			JOINT RightLeg
			{
				OFFSET -0.023144 -32.555092 0.112900
				CHANNELS 3 Xrotation Yrotation Zrotation
				JOINT RightFoot
				{
					OFFSET 0.023144 -32.638641 -3.012700
					CHANNELS 3 Xrotation Yrotation Zrotation
					JOINT RightToeBase
					{
						OFFSET -0.970200 -13.225400 11.864200
						CHANNELS 3 Xrotation Yrotation Zrotation
						End Site
						{
							OFFSET 0.000000 12.319244 0.000000
						}
					}
					JOINT RFootTongue
					{
						OFFSET -1.142200 -1.059800 6.665200
						CHANNELS 3 Xrotation Yrotation Zrotation
						End Site
						{
							OFFSET 0.000000 12.319243 0.000000
						}
					}
				}
				JOINT RightPantLeg
				{
					OFFSET -0.919482 -16.533978 -2.284800
					CHANNELS 3 Xrotation Yrotation Zrotation
					End Site
					{
						OFFSET -0.350400 24.744419 0.000000
					}
				}
			}
		}
	}
	JOINT Spine
	{
		OFFSET 0.000000 7.722000 1.166200
		CHANNELS 3 Xrotation Yrotation Zrotation
		JOINT Spine1
		{
			OFFSET 0.000000 12.024101 0.248800
			CHANNELS 3 Xrotation Yrotation Zrotation
			JOINT Spine2
			{
				OFFSET 0.000000 11.502998 -0.491200
				CHANNELS 3 Xrotation Yrotation Zrotation
				JOINT Neck
				{
					OFFSET 0.000000 18.430702 -3.123100
					CHANNELS 3 Xrotation Yrotation Zrotation
					JOINT Head
					{
						OFFSET 0.000000 9.051102 1.034000
						CHANNELS 3 Xrotation Yrotation Zrotation
						JOINT HairB
						{
							OFFSET 0.208400 24.786102 24.822300
							CHANNELS 3 Xrotation Yrotation Zrotation
							End Site
							{
								OFFSET 0.000000 32.263779 0.000000
							}
						}
						JOINT HairA
						{
							OFFSET -7.081100 24.428299 23.196600
							CHANNELS 3 Xrotation Yrotation Zrotation
							End Site
							{
								OFFSET 0.000000 32.263779 0.000000
							}
						}
						JOINT Hat
						{
							OFFSET 16.728800 15.048294 -15.439601
							CHANNELS 3 Xrotation Yrotation Zrotation
							End Site
							{
								OFFSET 0.000000 32.263779 0.000000
							}
						}
					}
				}
				JOINT LeftShoulder
				{
					OFFSET 6.197800 13.665199 -4.064700
					CHANNELS 3 Xrotation Yrotation Zrotation
					JOINT LeftArm
					{
						OFFSET 7.778100 -0.187103 -1.709300
						CHANNELS 3 Xrotation Yrotation Zrotation
						JOINT LeftForeArm
						{
							OFFSET 22.049376 0.000000 0.000000
							CHANNELS 3 Xrotation Yrotation Zrotation
							JOINT LeftHand
							{
								OFFSET 23.009392 0.000000 0.000000
								CHANNELS 3 Xrotation Yrotation Zrotation
								JOINT LeftHandThumb1
								{
									OFFSET 3.507191 -2.063065 3.133727
									CHANNELS 3 Xrotation Yrotation Zrotation
									JOINT LeftHandThumb2
									{
										OFFSET 3.101337 -1.790558 1.790558
										CHANNELS 3 Xrotation Yrotation Zrotation
										JOINT LeftHandThumb3
										{
											OFFSET 3.058640 -1.765907 1.765906
											CHANNELS 3 Xrotation Yrotation Zrotation
											End Site
											{
												OFFSET -0.415260 3.926476 -0.049563
											}
										}
									}
								}
								JOINT LeftHandIndex1
								{
									OFFSET 11.334419 -0.901459 3.706815
									CHANNELS 3 Xrotation Yrotation Zrotation
									JOINT LeftHandIndex2
									{
										OFFSET 3.283112 0.000000 0.000000
										CHANNELS 3 Xrotation Yrotation Zrotation
										JOINT LeftHandIndex3
										{
											OFFSET 3.323853 0.000000 0.000000
											CHANNELS 3 Xrotation Yrotation Zrotation
											End Site
											{
												OFFSET -1.135597 3.097809 0.402452
											}
										}
									}
								}
								JOINT LeftHandMiddle1
								{
									OFFSET 11.335861 0.000000 0.000000
									CHANNELS 3 Xrotation Yrotation Zrotation
									JOINT LeftHandMiddle2
									{
										OFFSET 3.410492 0.000000 0.000000
										CHANNELS 3 Xrotation Yrotation Zrotation
										JOINT LeftHandMiddle3
										{
											OFFSET 3.312172 0.000000 0.000000
											CHANNELS 3 Xrotation Yrotation Zrotation
											End Site
											{
												OFFSET -1.150200 3.080154 0.400270
											}
										}
									}
								}
								JOINT LeftHandRing1
								{
									OFFSET 11.514786 -0.013176 -3.003090
									CHANNELS 3 Xrotation Yrotation Zrotation
									JOINT LeftHandRing2
									{
										OFFSET 3.053307 0.000000 0.000000
										CHANNELS 3 Xrotation Yrotation Zrotation
										JOINT LeftHandRing3
										{
											OFFSET 3.295807 0.000000 0.000000
											CHANNELS 3 Xrotation Yrotation Zrotation
											End Site
											{
												OFFSET -1.281006 3.013344 0.375733
											}
										}
									}
								}
								JOINT LeftHandPinky1
								{
									OFFSET 10.518692 -0.960396 -5.730441
									CHANNELS 3 Xrotation Yrotation Zrotation
									JOINT LeftHandPinky2
									{
										OFFSET 2.861649 0.000000 0.000000
										CHANNELS 3 Xrotation Yrotation Zrotation
										JOINT LeftHandPinky3
										{
											OFFSET 2.863380 0.000000 0.000000
											CHANNELS 3 Xrotation Yrotation Zrotation
											End Site
											{
												OFFSET -0.843597 2.711159 0.369971
											}
										}
									}
								}
							}
							JOINT LSleeve
							{
								OFFSET 6.676277 -0.344902 -1.011730
								CHANNELS 3 Xrotation Yrotation Zrotation
								End Site
								{
									OFFSET 0.000000 14.885353 0.000000
								}
							}
						}
					}
				}
				JOINT RightShoulder
				{
					OFFSET -6.197800 13.665199 -4.064700
					CHANNELS 3 Xrotation Yrotation Zrotation
					JOINT RightArm
					{
						OFFSET -7.778100 -0.187103 -1.709300
						CHANNELS 3 Xrotation Yrotation Zrotation
						JOINT RightForeArm
						{
							OFFSET -22.049376 0.000000 0.000000
							CHANNELS 3 Xrotation Yrotation Zrotation
							JOINT RightHand
							{
								OFFSET -23.009392 0.000000 0.000000
								CHANNELS 3 Xrotation Yrotation Zrotation
								JOINT RightHandThumb1
								{
									OFFSET -3.507191 -2.063065 3.133727
									CHANNELS 3 Xrotation Yrotation Zrotation
									JOINT RightHandThumb2
									{
										OFFSET -3.101337 -1.790558 1.790558
										CHANNELS 3 Xrotation Yrotation Zrotation
										JOINT RightHandThumb3
										{
											OFFSET -3.058640 -1.765907 1.765906
											CHANNELS 3 Xrotation Yrotation Zrotation
											End Site
											{
												OFFSET 0.415260 3.926476 -0.049563
											}
										}
									}
								}
								JOINT RightHandIndex1
								{
									OFFSET -11.334419 -0.901459 3.706815
									CHANNELS 3 Xrotation Yrotation Zrotation
									JOINT RightHandIndex2
									{
										OFFSET -3.283112 0.000000 0.000000
										CHANNELS 3 Xrotation Yrotation Zrotation
										JOINT RightHandIndex3
										{
											OFFSET -3.323853 0.000000 0.000000
											CHANNELS 3 Xrotation Yrotation Zrotation
											End Site
											{
												OFFSET 1.135597 3.097809 0.402452
											}
										}
									}
								}
								JOINT RightHandMiddle1
								{
									OFFSET -11.335861 0.000000 0.000000
									CHANNELS 3 Xrotation Yrotation Zrotation
									JOINT RightHandMiddle2
									{
										OFFSET -3.410492 0.000000 0.000000
										CHANNELS 3 Xrotation Yrotation Zrotation
										JOINT RightHandMiddle3
										{
											OFFSET -3.312172 0.000000 0.000000
											CHANNELS 3 Xrotation Yrotation Zrotation
											End Site
											{
												OFFSET 1.150200 3.080154 0.400270
											}
										}
									}
								}
								JOINT RightHandRing1
								{
									OFFSET -11.514786 -0.013176 -3.003090
									CHANNELS 3 Xrotation Yrotation Zrotation
									JOINT RightHandRing2
									{
										OFFSET -3.053307 0.000000 0.000000
										CHANNELS 3 Xrotation Yrotation Zrotation
										JOINT RightHandRing3
										{
											OFFSET -3.295807 0.000000 0.000000
											CHANNELS 3 Xrotation Yrotation Zrotation
											End Site
											{
												OFFSET 1.281006 3.013344 0.375733
											}
										}
									}
								}
								JOINT RightHandPinky1
								{
									OFFSET -10.518692 -0.960396 -5.730441
									CHANNELS 3 Xrotation Yrotation Zrotation
									JOINT RightHandPinky2
									{
										OFFSET -2.861649 0.000000 0.000000
										CHANNELS 3 Xrotation Yrotation Zrotation
										JOINT RightHandPinky3
										{
											OFFSET -2.863380 0.000000 0.000000
											CHANNELS 3 Xrotation Yrotation Zrotation
											End Site
											{
												OFFSET 0.843597 2.711159 0.369971
											}
										}
									}
								}
							}
							JOINT RSleeve
							{
								OFFSET -6.676277 -0.344902 -1.011730
								CHANNELS 3 Xrotation Yrotation Zrotation
								End Site
								{
									OFFSET 0.000000 14.885353 0.000000
								}
							}
						}
					}
				}
				JOINT Backpack
				{
					OFFSET 0.000000 -2.471497 36.677502
					CHANNELS 3 Xrotation Yrotation Zrotation
					End Site
					{
						OFFSET 0.000000 20.427315 0.000000
					}
				}
				JOINT Hood
				{
					OFFSET 0.000000 18.754097 -10.431000
					CHANNELS 3 Xrotation Yrotation Zrotation
					JOINT Hood1
					{
						OFFSET 0.000000 -5.011002 -7.685901
						CHANNELS 3 Xrotation Yrotation Zrotation
						End Site
						{
							OFFSET 0.000000 9.175140 0.000000
						}
					}
				}
				JOINT LHoodieString
				{
					OFFSET 5.250500 16.397697 3.089900
					CHANNELS 3 Xrotation Yrotation Zrotation
					JOINT LHoodieString1
					{
						OFFSET 0.257700 -6.364304 3.694600
						CHANNELS 3 Xrotation Yrotation Zrotation
						JOINT LHoodieString2
						{
							OFFSET 0.000000 -9.643799 2.679100
							CHANNELS 3 Xrotation Yrotation Zrotation
							End Site
							{
								OFFSET 0.000000 10.009018 0.000000
							}
						}
					}
				}
				JOINT RHoodieString
				{
					OFFSET -5.250500 16.397697 3.089900
					CHANNELS 3 Xrotation Yrotation Zrotation
					JOINT RHoodieString1
					{
						OFFSET -0.257700 -6.364304 3.694600
						CHANNELS 3 Xrotation Yrotation Zrotation
						JOINT RHoodieString2
						{
							OFFSET 0.000000 -9.643799 2.679100
							CHANNELS 3 Xrotation Yrotation Zrotation
							End Site
							{
								OFFSET 0.000000 10.009018 0.000000
							}
						}
					}
				}
			}
			JOINT LBackpack_Strap
			{
				OFFSET 15.223200 -7.719803 -6.610900
				CHANNELS 3 Xrotation Yrotation Zrotation
				End Site
				{
					OFFSET 0.000000 16.040596 0.000000
				}
			}
			JOINT RBackpack_Strap
			{
				OFFSET -15.223000 -7.719803 -6.610900
				CHANNELS 3 Xrotation Yrotation Zrotation
				End Site
				{
					OFFSET 0.000000 16.040596 0.000000
				}
			}
		}
	}
	JOINT BoyFacialAnim_Joint
	{
		OFFSET 1.000000 -82.208099 -1.550900
		CHANNELS 3 Xrotation Yrotation Zrotation
		End Site
		{
			OFFSET 0.000000 30.012791 0.000000
		}
	}
}
MOTION
Frames: 4
Frame Time: 0.016667
0.153838 82.169609 0.430451 -5.480718 -12.098174 -1.058934 0.000000 -0.000000 -0.000000 -0.546366 21.475860 0.884986 14.500727 4.446775 1.218886 -9.052400 -1.263827 -0.708831 -0.000000 0.000000 0.000000 -0.000000 0.000000 0.000000 0.000000 -0.000001 0.000000 -4.049084 -8.988545 -10.952622 4.286557 -14.042574 -0.271980 7.209082 0.036203 8.008178 0.000000 -0.000003 0.000000 0.000000 -0.000003 0.000000 0.000001 0.000002 -0.000001 12.263184 1.502602 -1.650696 -3.993953 -8.493229 0.813504 -5.969560 4.580061 -2.629903 11.255315 0.027619 0.080739 -1.984794 -0.580077 3.370286 -0.000000 -0.000002 -0.000000 -0.000000 -0.000002 -0.000000 -0.000000 -0.000002 -0.000000 4.233561 -14.085167 -0.897023 5.919383 4.805981 -79.119395 2.144040 -12.162861 0.993676 -12.199783 -3.041360 9.443706 -3.785202 8.458469 12.351799 7.455439 11.608355 -1.288638 0.000000 -0.000001 0.000001 2.384617 3.620121 -6.815623 0.018935 0.237211 -17.103750 0.000001 0.000000 -0.000002 -1.935811 5.644690 -11.386958 0.101769 0.660616 -24.767596 -0.000000 0.000000 -0.000002 -4.873176 10.020080 -7.875425 -0.044692 0.326929 -30.086089 0.000001 0.000001 -0.000000 -6.437498 11.282625 -19.770988 0.059308 0.243047 -30.857593 0.000001 0.000001 0.000005 -0.000003 -0.000001 0.000001 3.456616 7.912194 4.381424 4.870321 0.880824 78.811804 0.216078 17.510300 -0.089614 -4.831395 -4.161986 -10.247035 -0.464249 -8.992503 -6.084805 7.446400 -11.613880 1.293123 -0.000001 -0.000001 0.000001 2.362525 -3.634254 8.333208 0.012281 -0.255082 18.622470 -0.000000 0.000000 0.000004 -1.983663 -5.671257 13.530163 0.138083 -0.655759 26.914191 0.000000 -0.000000 0.000002 -4.977963 -10.100818 10.695759 -0.008993 -0.341852 32.924025 -0.000001 0.000000 0.000000 -6.474080 -11.323146 23.226039 0.083648 -0.233792 34.317988 0.000001 0.000001 0.000000 0.000000 -0.000001 0.000001 -0.000000 -0.000001 -0.000000 -0.000000 -0.000001 -0.000000 -0.000000 -0.000001 -0.000000 -0.000000 -0.000001 -0.000000 -0.000000 -0.000001 -0.000000 -0.000000 0.000001 0.000000 -0.000000 -0.000001 -0.000000 -0.000000 -0.000001 -0.000000 -0.000000 0.000001 0.000000 0.000000 -0.000001 -0.000000 0.000000 -0.000001 -0.000000 0.000000 -0.000000 -0.000000 
0.113008 82.142105 0.364301 -5.459496 -11.920746 -1.065664 0.000001 0.000000 -0.000000 -0.874102 21.476476 1.054646 14.894928 4.240399 1.205763 -9.163040 -1.245570 -0.700851 0.000000 -0.000000 -0.000000 0.000000 -0.000000 -0.000000 0.000000 -0.000000 0.000000 -4.318028 -8.939296 -10.950138 4.815949 -14.023604 -0.280809 6.941087 0.030529 8.071573 -0.000000 -0.000002 -0.000000 -0.000000 -0.000002 -0.000000 0.000000 -0.000001 0.000001 12.286689 1.515036 -1.738647 -4.009647 -8.492096 0.838627 -5.990858 4.581320 -2.607013 11.197290 -0.037178 0.154592 -1.933323 -0.649537 3.461111 0.000000 0.000000 0.000000 0.000000 0.000000 0.000000 0.000000 0.000000 0.000000 4.134859 -13.909757 -1.027313 5.833300 4.715157 -78.638304 2.464687 -12.082310 0.839263 -11.971014 -2.884896 9.022996 -3.764273 8.410114 12.319248 7.372646 11.506802 -1.247443 -0.000000 -0.000001 0.000000 2.321429 3.520244 -6.821837 0.019642 0.237894 -17.855245 -0.000001 -0.000000 -0.000004 -1.898743 5.569507 -11.597230 0.101644 0.651976 -24.994633 -0.000001 -0.000001 -0.000002 -4.774454 9.989812 -8.066127 -0.044686 0.327392 -30.156088 0.000001 0.000001 -0.000000 -6.325138 11.199827 -19.847980 0.058972 0.242587 -30.742596 -0.000000 0.000000 0.000009 0.000000 0.000001 0.000000 3.381226 7.803407 4.537099 5.024064 1.620399 78.436110 0.420641 17.682395 -0.003075 -5.282812 -3.964284 -10.374967 -0.507298 -9.279074 -6.121813 7.209216 -11.240091 1.219495 0.000000 -0.000001 -0.000001 2.356834 -3.533953 8.694502 0.011841 -0.249328 18.450670 -0.000001 0.000000 0.000004 -1.904675 -5.449619 13.745693 0.133093 -0.634498 26.482327 -0.000000 0.000000 0.000002 -4.780953 -9.668442 11.141330 -0.009695 -0.329675 32.368827 -0.000001 -0.000001 0.000000 -6.359777 -10.736985 23.396444 0.076960 -0.231848 33.790681 -0.000001 -0.000000 0.000002 -0.000000 -0.000000 0.000000 -0.000000 0.000000 0.000000 -0.000000 0.000000 0.000000 -0.000000 0.000000 0.000000 -0.000000 0.000000 0.000000 -0.000000 0.000000 0.000000 0.000000 0.000000 -0.000000 -0.000000 0.000000 0.000000 -0.000000 0.000000 0.000000 0.000000 0.000000 -0.000000 -0.000000 -0.000001 0.000000 -0.000000 -0.000001 0.000000 0.000001 0.000000 -0.000000 
0.073098 82.113396 0.291764 -5.401915 -11.728860 -1.084544 -0.000000 0.000000 -0.000000 -1.277737 21.504878 1.261311 15.329116 3.954244 1.187574 -9.283515 -1.194568 -0.674515 0.000000 -0.000000 -0.000000 0.000000 -0.000000 -0.000000 -0.000000 -0.000000 -0.000000 -4.588629 -8.895368 -10.915524 5.277371 -14.053454 -0.307376 6.710933 0.050204 8.132271 0.000000 -0.000000 -0.000000 0.000000 -0.000000 -0.000000 0.000001 0.000000 0.000000 12.264397 1.519922 -1.811990 -4.018684 -8.493298 0.862145 -6.005032 4.580152 -2.583796 11.160975 -0.091035 0.230802 -1.910300 -0.714433 3.577409 -0.000000 0.000000 0.000000 -0.000000 0.000000 0.000000 -0.000000 0.000000 0.000000 4.037700 -13.737899 -1.155443 5.705734 4.632388 -78.161488 2.775906 -11.939531 0.681357 -11.739149 -2.759562 8.593621 -3.751109 8.349379 12.295302 7.298338 11.419274 -1.207286 0.000001 0.000001 0.000003 2.257670 3.427917 -6.819780 0.023232 0.238458 -18.684507 -0.000003 -0.000002 -0.000004 -1.862110 5.502068 -11.816810 0.101817 0.643605 -25.268206 -0.000001 -0.000000 -0.000005 -4.681515 9.963963 -8.246968 -0.044631 0.328111 -30.263363 -0.000000 0.000001 -0.000002 -6.218967 11.123550 -19.917499 0.058689 0.242173 -30.644074 -0.000000 -0.000001 0.000001 0.000001 0.000001 -0.000001 3.306759 7.693739 4.690965 5.157375 2.358697 78.058933 0.618393 17.828505 0.086474 -5.725249 -3.745779 -10.502780 -0.553298 -9.581184 -6.161866 6.959107 -10.845797 1.144349 0.000000 -0.000002 0.000001 2.350871 -3.428250 9.075726 0.011340 -0.243169 18.269267 -0.000000 0.000001 0.000002 -1.823167 -5.215159 13.972265 0.127794 -0.612063 26.026622 -0.000000 0.000000 -0.000000 -4.580344 -9.209593 11.607396 -0.010359 -0.316789 31.782749 -0.000001 -0.000000 0.000002 -6.242224 -10.117658 23.571447 0.069919 -0.225122 33.234348 -0.000000 -0.000000 0.000000 0.000000 -0.000001 -0.000001 -0.000000 0.000001 -0.000000 -0.000000 0.000001 -0.000000 -0.000000 0.000001 -0.000000 -0.000000 0.000001 -0.000000 -0.000000 0.000001 -0.000000 0.000000 0.000001 0.000000 -0.000000 0.000001 -0.000000 -0.000000 0.000001 -0.000000 0.000000 0.000001 0.000000 -0.000000 0.000001 0.000000 -0.000000 0.000001 0.000000 -0.000000 0.000000 -0.000000 
0.052907 82.077301 0.192504 -5.271437 -11.495810 -1.134674 -0.000000 -0.000000 -0.000000 -1.883645 21.556128 1.546007 15.910159 3.568899 1.163434 -9.447210 -1.115007 -0.607924 0.000000 -0.000001 0.000000 0.000000 -0.000001 -0.000000 0.000000 -0.000001 0.000000 -4.902133 -8.851182 -10.832792 5.658380 -14.158517 -0.347166 6.547593 0.095007 8.189270 -0.000000 -0.000000 -0.000000 -0.000000 -0.000000 -0.000000 0.000000 -0.000004 -0.000000 12.162427 1.504279 -1.831736 -4.021895 -8.515542 0.871766 -6.003062 4.558940 -2.572199 11.158115 -0.114070 0.288822 -1.943716 -0.770572 3.768101 -0.000000 -0.000003 0.000000 -0.000000 -0.000003 0.000000 -0.000000 -0.000003 0.000000 3.942081 -13.569997 -1.281384 5.619343 4.574181 -77.694706 3.051947 -11.904675 0.522637 -11.509799 -2.582425 8.194513 -3.744034 8.279130 12.277965 7.230609 11.342597 -1.167953 0.000002 -0.000001 0.000004 2.193384 3.341376 -6.811387 0.027122 0.239054 -19.573128 0.000002 0.000000 -0.000002 -1.826027 5.440489 -12.043511 0.101614 0.635395 -25.577298 0.000001 -0.000001 -0.000002 -4.592996 9.941422 -8.420094 -0.044567 0.328999 -30.399444 -0.000003 -0.000000 -0.000002 -6.117669 11.052289 -19.980938 0.058442 0.241812 -30.558451 -0.000000 0.000001 0.000003 0.000001 -0.000000 0.000001 3.233184 7.582013 4.843429 5.215428 3.086636 77.680561 0.821299 17.890999 0.179988 -6.140638 -3.482969 -10.626907 -0.602025 -9.897172 -6.204836 6.697327 -10.433163 1.068090 -0.000001 -0.000000 0.000003 2.344623 -3.317803 9.474918 0.008474 -0.236766 18.079512 -0.000000 0.000000 0.000005 -1.739764 -4.969235 14.208448 0.122235 -0.588450 25.549620 -0.000000 -0.000001 0.000003 -4.378343 -8.726590 12.090935 -0.011008 -0.303301 31.169493 0.000001 0.000000 0.000002 -6.122418 -9.468422 23.749507 0.062740 -0.217975 32.652078 -0.000001 -0.000002 -0.000000 0.000000 -0.000000 -0.000001 -0.000000 0.000000 -0.000000 -0.000000 0.000000 -0.000000 -0.000000 0.000000 -0.000000 -0.000000 0.000000 -0.000000 -0.000000 0.000000 -0.000000 0.000000 0.000000 -0.000000 -0.000000 0.000000 -0.000000 -0.000000 0.000000 -0.000000 0.000000 0.000000 -0.000000 0.000000 -0.000000 -0.000000 0.000000 -0.000000 -0.000000 -0.000000 -0.000000 -0.000000 
